<mxfile host="Electron" agent="Mozilla/5.0 (Windows NT 10.0; Win64; x64) AppleWebKit/537.36 (KHTML, like Gecko) draw.io/24.7.17 Chrome/128.0.6613.36 Electron/32.0.1 Safari/537.36" version="24.7.17">
  <diagram name="Страница — 1" id="YSMQW4tKvHTIruasvQNO">
    <mxGraphModel dx="500" dy="341" grid="1" gridSize="10" guides="1" tooltips="1" connect="1" arrows="1" fold="1" page="1" pageScale="1" pageWidth="827" pageHeight="1169" math="0" shadow="0">
      <root>
        <mxCell id="0" />
        <mxCell id="1" parent="0" />
        <mxCell id="barYEJFdWYSISxJVIZfi-20" style="edgeStyle=orthogonalEdgeStyle;rounded=0;orthogonalLoop=1;jettySize=auto;html=1;" parent="1" source="barYEJFdWYSISxJVIZfi-1" target="barYEJFdWYSISxJVIZfi-19" edge="1">
          <mxGeometry relative="1" as="geometry" />
        </mxCell>
        <mxCell id="barYEJFdWYSISxJVIZfi-1" value="Начало" style="ellipse;whiteSpace=wrap;html=1;" parent="1" vertex="1">
          <mxGeometry x="280" y="10" width="70" height="50" as="geometry" />
        </mxCell>
        <mxCell id="barYEJFdWYSISxJVIZfi-4" value="" style="endArrow=none;html=1;rounded=0;" parent="1" edge="1">
          <mxGeometry width="50" height="50" relative="1" as="geometry">
            <mxPoint x="400" y="10" as="sourcePoint" />
            <mxPoint x="520" y="10" as="targetPoint" />
          </mxGeometry>
        </mxCell>
        <mxCell id="barYEJFdWYSISxJVIZfi-5" value="" style="endArrow=none;html=1;rounded=0;" parent="1" edge="1">
          <mxGeometry width="50" height="50" relative="1" as="geometry">
            <mxPoint x="400" y="180" as="sourcePoint" />
            <mxPoint x="400" y="10" as="targetPoint" />
          </mxGeometry>
        </mxCell>
        <mxCell id="barYEJFdWYSISxJVIZfi-7" value="&lt;div&gt;#include &amp;lt;iostream&amp;gt;&lt;/div&gt;&lt;div&gt;#include &amp;lt;clocale&amp;gt;&lt;/div&gt;&lt;div&gt;#include &amp;lt;cmath&amp;gt;&lt;/div&gt;&lt;div&gt;using namespace std;&lt;/div&gt;" style="text;html=1;align=center;verticalAlign=middle;whiteSpace=wrap;rounded=0;" parent="1" vertex="1">
          <mxGeometry x="410" y="10" width="160" height="70" as="geometry" />
        </mxCell>
        <mxCell id="barYEJFdWYSISxJVIZfi-14" style="edgeStyle=orthogonalEdgeStyle;rounded=0;orthogonalLoop=1;jettySize=auto;html=1;entryX=0.25;entryY=0;entryDx=0;entryDy=0;" parent="1" source="barYEJFdWYSISxJVIZfi-8" edge="1">
          <mxGeometry relative="1" as="geometry">
            <mxPoint x="466.5" y="140" as="targetPoint" />
          </mxGeometry>
        </mxCell>
        <mxCell id="barYEJFdWYSISxJVIZfi-8" value="float f(float x)" style="shape=process;whiteSpace=wrap;html=1;backgroundOutline=1;" parent="1" vertex="1">
          <mxGeometry x="414" y="90" width="106" height="20" as="geometry" />
        </mxCell>
        <mxCell id="barYEJFdWYSISxJVIZfi-15" value="{" style="text;html=1;align=center;verticalAlign=middle;whiteSpace=wrap;rounded=0;" parent="1" vertex="1">
          <mxGeometry x="255" y="400" width="30" height="20" as="geometry" />
        </mxCell>
        <mxCell id="barYEJFdWYSISxJVIZfi-16" value="}" style="text;html=1;align=center;verticalAlign=middle;whiteSpace=wrap;rounded=0;" parent="1" vertex="1">
          <mxGeometry x="650" y="140" width="30" height="25" as="geometry" />
        </mxCell>
        <mxCell id="NfwYZ1OnKjQ1SjtDYjIP-7" style="edgeStyle=orthogonalEdgeStyle;rounded=0;orthogonalLoop=1;jettySize=auto;html=1;entryX=0.5;entryY=0;entryDx=0;entryDy=0;" edge="1" parent="1" source="barYEJFdWYSISxJVIZfi-19" target="NfwYZ1OnKjQ1SjtDYjIP-3">
          <mxGeometry relative="1" as="geometry" />
        </mxCell>
        <mxCell id="barYEJFdWYSISxJVIZfi-19" value="int main()" style="shape=process;whiteSpace=wrap;html=1;backgroundOutline=1;" parent="1" vertex="1">
          <mxGeometry x="270" y="100" width="90" height="20" as="geometry" />
        </mxCell>
        <mxCell id="barYEJFdWYSISxJVIZfi-22" value="" style="endArrow=none;dashed=1;html=1;rounded=0;" parent="1" edge="1">
          <mxGeometry width="50" height="50" relative="1" as="geometry">
            <mxPoint x="320" y="80" as="sourcePoint" />
            <mxPoint x="400" y="80" as="targetPoint" />
          </mxGeometry>
        </mxCell>
        <mxCell id="NfwYZ1OnKjQ1SjtDYjIP-9" style="edgeStyle=orthogonalEdgeStyle;rounded=0;orthogonalLoop=1;jettySize=auto;html=1;entryX=0.5;entryY=0;entryDx=0;entryDy=0;" edge="1" parent="1" source="barYEJFdWYSISxJVIZfi-23" target="barYEJFdWYSISxJVIZfi-25">
          <mxGeometry relative="1" as="geometry" />
        </mxCell>
        <mxCell id="barYEJFdWYSISxJVIZfi-23" value="float e = 0.001;" style="rounded=0;whiteSpace=wrap;html=1;" parent="1" vertex="1">
          <mxGeometry x="265" y="190" width="100" height="20" as="geometry" />
        </mxCell>
        <mxCell id="NfwYZ1OnKjQ1SjtDYjIP-10" style="edgeStyle=orthogonalEdgeStyle;rounded=0;orthogonalLoop=1;jettySize=auto;html=1;entryX=0.5;entryY=0;entryDx=0;entryDy=0;" edge="1" parent="1" source="barYEJFdWYSISxJVIZfi-25" target="NfwYZ1OnKjQ1SjtDYjIP-5">
          <mxGeometry relative="1" as="geometry" />
        </mxCell>
        <mxCell id="barYEJFdWYSISxJVIZfi-25" value="setlocale(LC_ALL,&quot;rus&quot;);" style="rounded=0;whiteSpace=wrap;html=1;" parent="1" vertex="1">
          <mxGeometry x="240" y="230" width="150" height="20" as="geometry" />
        </mxCell>
        <mxCell id="NfwYZ1OnKjQ1SjtDYjIP-1" value="return sqrt(1 - 0.4 * pow(x, 2)) - asin(x);" style="rounded=0;whiteSpace=wrap;html=1;" vertex="1" parent="1">
          <mxGeometry x="414" y="140" width="236" height="25" as="geometry" />
        </mxCell>
        <mxCell id="NfwYZ1OnKjQ1SjtDYjIP-2" value="" style="endArrow=none;html=1;rounded=0;" edge="1" parent="1">
          <mxGeometry width="50" height="50" relative="1" as="geometry">
            <mxPoint x="400" y="180" as="sourcePoint" />
            <mxPoint x="520" y="180" as="targetPoint" />
          </mxGeometry>
        </mxCell>
        <mxCell id="NfwYZ1OnKjQ1SjtDYjIP-8" style="edgeStyle=orthogonalEdgeStyle;rounded=0;orthogonalLoop=1;jettySize=auto;html=1;entryX=0.5;entryY=0;entryDx=0;entryDy=0;" edge="1" parent="1" source="NfwYZ1OnKjQ1SjtDYjIP-3" target="barYEJFdWYSISxJVIZfi-23">
          <mxGeometry relative="1" as="geometry" />
        </mxCell>
        <mxCell id="NfwYZ1OnKjQ1SjtDYjIP-3" value="float a, b, c;" style="rounded=0;whiteSpace=wrap;html=1;" vertex="1" parent="1">
          <mxGeometry x="275" y="145" width="80" height="20" as="geometry" />
        </mxCell>
        <mxCell id="NfwYZ1OnKjQ1SjtDYjIP-4" value="{" style="text;html=1;align=center;verticalAlign=middle;whiteSpace=wrap;rounded=0;" vertex="1" parent="1">
          <mxGeometry x="270" y="120" width="30" height="20" as="geometry" />
        </mxCell>
        <mxCell id="NfwYZ1OnKjQ1SjtDYjIP-11" style="edgeStyle=orthogonalEdgeStyle;rounded=0;orthogonalLoop=1;jettySize=auto;html=1;" edge="1" parent="1" source="NfwYZ1OnKjQ1SjtDYjIP-5" target="NfwYZ1OnKjQ1SjtDYjIP-6">
          <mxGeometry relative="1" as="geometry" />
        </mxCell>
        <mxCell id="NfwYZ1OnKjQ1SjtDYjIP-5" value="cout &amp;lt;&amp;lt; &quot;Введите значения отрезка [a;b]: &quot;;" style="shape=parallelogram;perimeter=parallelogramPerimeter;whiteSpace=wrap;html=1;fixedSize=1;" vertex="1" parent="1">
          <mxGeometry x="175" y="270" width="280" height="20" as="geometry" />
        </mxCell>
        <mxCell id="NfwYZ1OnKjQ1SjtDYjIP-13" style="edgeStyle=orthogonalEdgeStyle;rounded=0;orthogonalLoop=1;jettySize=auto;html=1;" edge="1" parent="1" source="NfwYZ1OnKjQ1SjtDYjIP-6" target="NfwYZ1OnKjQ1SjtDYjIP-12">
          <mxGeometry relative="1" as="geometry" />
        </mxCell>
        <mxCell id="NfwYZ1OnKjQ1SjtDYjIP-6" value="cin &amp;gt;&amp;gt; a &amp;gt;&amp;gt; b;" style="shape=parallelogram;perimeter=parallelogramPerimeter;whiteSpace=wrap;html=1;fixedSize=1;" vertex="1" parent="1">
          <mxGeometry x="255" y="310" width="120" height="20" as="geometry" />
        </mxCell>
        <mxCell id="NfwYZ1OnKjQ1SjtDYjIP-16" style="edgeStyle=orthogonalEdgeStyle;rounded=0;orthogonalLoop=1;jettySize=auto;html=1;entryX=0.5;entryY=0;entryDx=0;entryDy=0;" edge="1" parent="1" source="NfwYZ1OnKjQ1SjtDYjIP-12" target="NfwYZ1OnKjQ1SjtDYjIP-14">
          <mxGeometry relative="1" as="geometry" />
        </mxCell>
        <mxCell id="NfwYZ1OnKjQ1SjtDYjIP-12" value="while (abs(a - b) &amp;gt; e)" style="rhombus;whiteSpace=wrap;html=1;" vertex="1" parent="1">
          <mxGeometry x="232.5" y="360" width="165" height="50" as="geometry" />
        </mxCell>
        <mxCell id="NfwYZ1OnKjQ1SjtDYjIP-17" style="edgeStyle=orthogonalEdgeStyle;rounded=0;orthogonalLoop=1;jettySize=auto;html=1;" edge="1" parent="1" source="NfwYZ1OnKjQ1SjtDYjIP-14" target="NfwYZ1OnKjQ1SjtDYjIP-15">
          <mxGeometry relative="1" as="geometry" />
        </mxCell>
        <mxCell id="NfwYZ1OnKjQ1SjtDYjIP-14" value="c = (a + b) / 2;" style="rounded=0;whiteSpace=wrap;html=1;" vertex="1" parent="1">
          <mxGeometry x="270" y="440" width="90" height="20" as="geometry" />
        </mxCell>
        <mxCell id="NfwYZ1OnKjQ1SjtDYjIP-23" style="edgeStyle=orthogonalEdgeStyle;rounded=0;orthogonalLoop=1;jettySize=auto;html=1;entryX=0.5;entryY=0;entryDx=0;entryDy=0;" edge="1" parent="1" source="NfwYZ1OnKjQ1SjtDYjIP-15" target="NfwYZ1OnKjQ1SjtDYjIP-18">
          <mxGeometry relative="1" as="geometry" />
        </mxCell>
        <mxCell id="NfwYZ1OnKjQ1SjtDYjIP-15" value="cout &amp;lt;&amp;lt; c &amp;lt;&amp;lt; endl;" style="shape=parallelogram;perimeter=parallelogramPerimeter;whiteSpace=wrap;html=1;fixedSize=1;" vertex="1" parent="1">
          <mxGeometry x="247.5" y="480" width="135" height="20" as="geometry" />
        </mxCell>
        <mxCell id="NfwYZ1OnKjQ1SjtDYjIP-24" style="edgeStyle=orthogonalEdgeStyle;rounded=0;orthogonalLoop=1;jettySize=auto;html=1;entryX=0.444;entryY=0;entryDx=0;entryDy=0;entryPerimeter=0;" edge="1" parent="1" source="NfwYZ1OnKjQ1SjtDYjIP-18" target="NfwYZ1OnKjQ1SjtDYjIP-21">
          <mxGeometry relative="1" as="geometry">
            <mxPoint x="230" y="580" as="targetPoint" />
            <Array as="points">
              <mxPoint x="230" y="545" />
            </Array>
          </mxGeometry>
        </mxCell>
        <mxCell id="NfwYZ1OnKjQ1SjtDYjIP-25" style="edgeStyle=orthogonalEdgeStyle;rounded=0;orthogonalLoop=1;jettySize=auto;html=1;entryX=0.5;entryY=0;entryDx=0;entryDy=0;" edge="1" parent="1" source="NfwYZ1OnKjQ1SjtDYjIP-18" target="NfwYZ1OnKjQ1SjtDYjIP-22">
          <mxGeometry relative="1" as="geometry">
            <Array as="points">
              <mxPoint x="410" y="545" />
            </Array>
          </mxGeometry>
        </mxCell>
        <mxCell id="NfwYZ1OnKjQ1SjtDYjIP-18" value="if (f(b) * f(c) &amp;lt; 0)" style="rhombus;whiteSpace=wrap;html=1;" vertex="1" parent="1">
          <mxGeometry x="247.5" y="520" width="135" height="50" as="geometry" />
        </mxCell>
        <mxCell id="NfwYZ1OnKjQ1SjtDYjIP-19" value="1" style="text;html=1;align=center;verticalAlign=middle;whiteSpace=wrap;rounded=0;" vertex="1" parent="1">
          <mxGeometry x="280" y="410" width="30" height="20" as="geometry" />
        </mxCell>
        <mxCell id="NfwYZ1OnKjQ1SjtDYjIP-20" value="0" style="text;html=1;align=center;verticalAlign=middle;whiteSpace=wrap;rounded=0;" vertex="1" parent="1">
          <mxGeometry x="410" y="360" width="35" height="20" as="geometry" />
        </mxCell>
        <mxCell id="NfwYZ1OnKjQ1SjtDYjIP-28" style="edgeStyle=orthogonalEdgeStyle;rounded=0;orthogonalLoop=1;jettySize=auto;html=1;" edge="1" parent="1" source="NfwYZ1OnKjQ1SjtDYjIP-21">
          <mxGeometry relative="1" as="geometry">
            <mxPoint x="320" y="630" as="targetPoint" />
            <Array as="points">
              <mxPoint x="233" y="630" />
            </Array>
          </mxGeometry>
        </mxCell>
        <mxCell id="NfwYZ1OnKjQ1SjtDYjIP-21" value="a = c;" style="rounded=0;whiteSpace=wrap;html=1;" vertex="1" parent="1">
          <mxGeometry x="210" y="590" width="45" height="20" as="geometry" />
        </mxCell>
        <mxCell id="NfwYZ1OnKjQ1SjtDYjIP-29" style="edgeStyle=orthogonalEdgeStyle;rounded=0;orthogonalLoop=1;jettySize=auto;html=1;" edge="1" parent="1" source="NfwYZ1OnKjQ1SjtDYjIP-22">
          <mxGeometry relative="1" as="geometry">
            <mxPoint x="320" y="630" as="targetPoint" />
            <Array as="points">
              <mxPoint x="410" y="630" />
            </Array>
          </mxGeometry>
        </mxCell>
        <mxCell id="NfwYZ1OnKjQ1SjtDYjIP-22" value="b = c;" style="rounded=0;whiteSpace=wrap;html=1;" vertex="1" parent="1">
          <mxGeometry x="390" y="590" width="40" height="20" as="geometry" />
        </mxCell>
        <mxCell id="NfwYZ1OnKjQ1SjtDYjIP-26" value="1" style="text;html=1;align=center;verticalAlign=middle;whiteSpace=wrap;rounded=0;" vertex="1" parent="1">
          <mxGeometry x="230" y="520" width="17.5" height="20" as="geometry" />
        </mxCell>
        <mxCell id="NfwYZ1OnKjQ1SjtDYjIP-27" value="0" style="text;html=1;align=center;verticalAlign=middle;whiteSpace=wrap;rounded=0;" vertex="1" parent="1">
          <mxGeometry x="382.5" y="520" width="24" height="20" as="geometry" />
        </mxCell>
        <mxCell id="NfwYZ1OnKjQ1SjtDYjIP-30" value="" style="endArrow=classic;html=1;rounded=0;" edge="1" parent="1">
          <mxGeometry width="50" height="50" relative="1" as="geometry">
            <mxPoint x="320" y="630" as="sourcePoint" />
            <mxPoint x="310" y="340" as="targetPoint" />
            <Array as="points">
              <mxPoint x="320" y="650" />
              <mxPoint x="290" y="650" />
              <mxPoint x="200" y="650" />
              <mxPoint x="200" y="340" />
            </Array>
          </mxGeometry>
        </mxCell>
        <mxCell id="NfwYZ1OnKjQ1SjtDYjIP-34" style="edgeStyle=orthogonalEdgeStyle;rounded=0;orthogonalLoop=1;jettySize=auto;html=1;" edge="1" parent="1" source="NfwYZ1OnKjQ1SjtDYjIP-31" target="NfwYZ1OnKjQ1SjtDYjIP-33">
          <mxGeometry relative="1" as="geometry" />
        </mxCell>
        <mxCell id="NfwYZ1OnKjQ1SjtDYjIP-31" value="cout &amp;lt;&amp;lt; c;" style="shape=parallelogram;perimeter=parallelogramPerimeter;whiteSpace=wrap;html=1;fixedSize=1;" vertex="1" parent="1">
          <mxGeometry x="445" y="440" width="100" height="20" as="geometry" />
        </mxCell>
        <mxCell id="NfwYZ1OnKjQ1SjtDYjIP-32" style="edgeStyle=orthogonalEdgeStyle;rounded=0;orthogonalLoop=1;jettySize=auto;html=1;entryX=0.55;entryY=0;entryDx=0;entryDy=0;entryPerimeter=0;" edge="1" parent="1" source="NfwYZ1OnKjQ1SjtDYjIP-12" target="NfwYZ1OnKjQ1SjtDYjIP-31">
          <mxGeometry relative="1" as="geometry" />
        </mxCell>
        <mxCell id="NfwYZ1OnKjQ1SjtDYjIP-33" value="return 0;" style="ellipse;whiteSpace=wrap;html=1;" vertex="1" parent="1">
          <mxGeometry x="455" y="490" width="80" height="40" as="geometry" />
        </mxCell>
        <mxCell id="NfwYZ1OnKjQ1SjtDYjIP-35" value="{" style="text;html=1;align=center;verticalAlign=middle;whiteSpace=wrap;rounded=0;" vertex="1" parent="1">
          <mxGeometry x="413" y="110" width="30" height="20" as="geometry" />
        </mxCell>
        <mxCell id="NfwYZ1OnKjQ1SjtDYjIP-36" value="}" style="text;html=1;align=center;verticalAlign=middle;whiteSpace=wrap;rounded=0;" vertex="1" parent="1">
          <mxGeometry x="545" y="497.5" width="30" height="25" as="geometry" />
        </mxCell>
        <mxCell id="NfwYZ1OnKjQ1SjtDYjIP-37" value="}" style="text;html=1;align=center;verticalAlign=middle;whiteSpace=wrap;rounded=0;" vertex="1" parent="1">
          <mxGeometry x="335" y="630" width="25" height="20" as="geometry" />
        </mxCell>
      </root>
    </mxGraphModel>
  </diagram>
</mxfile>
